<?xml version="1.0" standalone="no"?>
<svg
  width="600"
  height="600"
  viewBox="0 0 600 600"
  xmlns="http://www.w3.org/2000/svg"
>
      <clipPath id="clipShape1">
           <path d="M89,-146.5C103.4,-129.2,94.9,-84.4,110.4,-50.4C125.9,-16.5,165.4,6.5,165.2,25.4C165.1,44.3,125.2,59.2,99.8,84C74.4,108.8,63.4,143.6,40.8,159.9C18.1,176.2,-16.2,174,-57,172.1C-97.9,170.2,-145.3,168.6,-147.6,141.5C-149.9,114.4,-107.1,61.8,-117.5,14.6C-127.8,-32.6,-191.2,-74.5,-204.8,-113.9C-218.5,-153.3,-182.2,-190.2,-139.8,-194.6C-97.3,-199.1,-48.7,-171,-5.7,-162.2C37.3,-153.4,74.6,-163.8,89,-146.5Z" fill="#eb144c" />
      </clipPath>
  <g transform="translate(300,300)">
    <path d="M89,-146.5C103.4,-129.2,94.9,-84.4,110.4,-50.4C125.9,-16.5,165.4,6.5,165.2,25.4C165.1,44.3,125.2,59.2,99.8,84C74.4,108.8,63.4,143.6,40.8,159.9C18.1,176.2,-16.2,174,-57,172.1C-97.9,170.2,-145.3,168.6,-147.6,141.5C-149.9,114.4,-107.1,61.8,-117.5,14.6C-127.8,-32.6,-191.2,-74.5,-204.8,-113.9C-218.5,-153.3,-182.2,-190.2,-139.8,-194.6C-97.3,-199.1,-48.7,-171,-5.7,-162.2C37.3,-153.4,74.6,-163.8,89,-146.5Z" fill="#eb144c" />
  </g>
</svg>
  